<svg xmlns="http://www.w3.org/2000/svg">
	<symbol id="phone" viewBox="0 0 34 38">
		<path d="M29 26.5a7.7 7.7 0 0 1-.2 1.5l-.3 1.1a2.6 2.6 0 0 1-.6 1 8.5 8.5 0 0 1-3 1.9 6 6 0 0 1-1.2.3 5.5 5.5 0 0 1-1.8-.1c-.4 0-.7-.2-1-.3a9.6 9.6 0 0 1-1.2-.5l-.5-.2-1-.4-1.3-.7c-.4-.3-.7-.3-1-.6l-1-.8-.8-.6-1.1-1a47 47 0 0 1-4.6-5.4 21 21 0 0 1-1-1.7A17.5 17.5 0 0 1 6 17l-1-3.1a11.9 11.9 0 0 1-.4-1.9A8.1 8.1 0 0 1 4.8 9a10 10 0 0 1 1-2.5 9 9 0 0 1 .6-1 2.6 2.6 0 0 1 1-.9 10.5 10.5 0 0 1 1.3-.3 6.4 6.4 0 0 1 .9-.1.8.8 0 0 1 .8.4l.5 1 .7 1.7c.2.6.6 1.2 1 1.8l.4.8.3.5a1.2 1.2 0 0 1-.1 1.3 7.3 7.3 0 0 1-1 1.1l-1 .9a6.3 6.3 0 0 0-.8.9 1 1 0 0 0-.1.9 6.4 6.4 0 0 0 .4 1l.7 1.4a21.7 21.7 0 0 0 1.5 2.2 15.5 15.5 0 0 0 1.3 1.7l1.2 1.2a13 13 0 0 0 1.4 1.1l1 .8 1 .6a2.2 2.2 0 0 0 .6.3.6.6 0 0 0 .5-.1 3 3 0 0 0 .7-.7l.9-1.3a7.3 7.3 0 0 1 1-1.3 1.3 1.3 0 0 1 .3-.2.8.8 0 0 1 .8 0 7.7 7.7 0 0 1 1 .8l.5.4 1.4.9 1 .6 1 .7a2 2 0 0 1 .3.2.8.8 0 0 1 .2.6z"/>
	</symbol>
	<symbol id="logo" viewBox="0 0 228.7 82">
		<path d="M78.4 5.8c6 2.3 10.5 5.9 10 13.1 0 .5 0 1.3.2 1.5 6.7 3.7 2 8.5 1.2 13a2.8 2.8 0 0 0 .8.3c3 .3 7.2-.5 8.5 1.1 1.4 1.8.6 5.9-.2 8.7-1 4-3 7.6-4.6 11.8 5.2 1 6.7-1.8 8.2-5.2 1.8-4 3.6-8.4 6.4-11.6a20.1 20.1 0 0 1 9.8-5.4c6.3-1.6 10.5 2.5 9.6 9a22.3 22.3 0 0 1-10.8 16.6c-6 3.6-10.6 2.8-15.2-2-2.6 1.6-5 3.7-7.7 4.5-2.1.6-5.3.2-6.8-1.1-1.2-1-1.3-4.4-.7-6.3 1.4-4.7 3.6-9.2 5.4-13.8l-1.3-1.3c-1.6 1-4.3 1.8-4.8 3.2-1.6 5.7-7.4 10.7-3.6 19-2.8 0-6.2 1-8-.2-1.4-1-1.7-5-1-7.3 2.6-7.8 6-15.3 9.2-23.6-3.5 1-6.3 2-9.1 2.4-9.5 1-12.7-2.7-10-11.6-4.5-.1-6.4 2-5.5 6.4a40.7 40.7 0 0 0 2.1 8.1c9.7 22.6 4.6 35-18.1 43.7h-12l-1.9-.7c-9.8-2.5-14.3-8.2-13.3-16.8C16.2 52.2 24.4 44 33 44c1.8 0 4.6 1.5 5.3 3 1.4 3-2.3 7.8-6.6 9.3-3.7 1.4-6 0-7-4.9-1.9 2.7-3.5 4.4-4.4 6.4C16.6 67.2 25 76.1 36 74.7c13.5-1.8 20.6-14.5 16.3-29.2L45.6 23A37.3 37.3 0 0 0 25 24.6c-4.7 1.7-8.6 4.4-10.6 9.2s-.2 9 2.6 13.4c-2.3 0-5 .2-6.1-1.1-2.9-3.1-5-6.8-7.5-10.3v-6c3.4-8 9.7-11.7 18.2-11.4 7.9.3 15.8 1.2 23.7 1.7 1.5.1 3.8-.2 4.3-1.1 4.5-7.8 11.7-11 19.8-13.2zm-3 8.8L72.7 16c-4.5 2.6-7 7.7-5.3 10.6s8.4 3 12.2-.7c2.7-2.7 5.5-5.9 4.3-10.4-1-4.1-4-6-7.9-6.7C70 8 64 11.2 60.4 18c3-1.2 5.3-2.4 7.8-3 2.2-.3 4.3-4.2 7.3-.3zm35 43c6.7-2.5 12.6-16.2 9.4-21.6-6.4 3.9-11.4 15.5-9.3 21.5zM225.3 34.4L221 45.6l-4 10.1 1 1.3 7.4-3.6c-.3 4.8-3.8 6.7-7.3 8.4-3.8 1.8-7.1 1-9.5-2.5-8.5 4.8-10.4 4.6-14.9-1.3-7.3 5.8-10.7 6.1-15.5 1.3-1.7.9-3.4 2.3-5.2 2.5-2.5.3-5.7.4-7.3-1-1.2-1-1.2-4.5-.6-6.7 1.3-4.3 3.3-8.3 4.9-12.5l-.5-2.4c-2 1.3-4.7 2-5.2 3.5-1.7 5.7-7.4 10.6-3.7 19-2.8 0-5.8 1-8 0-3.6-1.5-2-5-1-7.5 2.9-7.8 6.1-15.4 9.2-23.2.7-2 2.8-4.1-.4-6-.2-.2.6-3 1-3 2.3 0 5.1-.2 7 1 1.1.6 1.2 3.7 1 5.6s-1.2 3.8-2 6.1l3.1-.7c6.4-1.4 9.3 1.8 7.2 8.2-.8 2.3-1.8 4.6-2.8 7l-2.5 6.4.9 1.3c1.8-.9 4.4-1.2 5.2-2.6 2.6-4.5 4.4-9.3 6.5-14a1.9 1.9 0 0 0 0-1.4c-1-1.5-3.7-3.2-.8-4.6 1.9-1 5-.5 7 .5 1.2.6 1.8 3.8 1.3 5.5-1 4-2.8 7.8-4.3 11.7l-1.2 4c4.1 1.2 6-.8 7.3-4 1.5-3.5 2.7-7.2 4.9-10.3 4-5.6 9.2-9.4 17-7.3 2.6.6 5.6 0 9.2 0zm-9.5 3c-4.2-1.7-6.5.5-8 3a58.4 58.4 0 0 0-5.6 11c-.6 1.7.2 4 .4 6 2.2-1 5.4-1.4 6.2-3 2.8-5.3 4.7-11.1 7-17z"/>
		<path d="M142.8 33.5a25.2 25.2 0 0 1 3-1.5c5.6-2.2 10 1 9.8 7a20.8 20.8 0 0 1-23.4 19.8c-.6 3.6-5.1 6.8-.9 12.4-2.7.1-6.1 1.2-7.8 0-1.4-1.1-1.6-5.2-.8-7.5 2.7-8 6.2-15.7 9.3-23.6.5-1.3.7-3.5 0-4.4-2.6-3-.7-4.3 1.9-4.3s5.1 1.1 9 2.1zM134 55.2l1.3 1.7c2.2-1.3 5-2.2 6.4-4.1a40.4 40.4 0 0 0 5.5-10.4c.6-1.7-.5-4-.8-6-2 1-5 1.7-6 3.4-2.6 4.9-4.3 10.3-6.4 15.4zM199 26c-2.9 2.2-4.6 4.5-6.1 4.3s-4-2.6-4.1-4.1 2.4-4 4-4.2 3.3 2 6.2 4z"/>
	</symbol>
	<symbol id="facebook" viewBox="0 0 195 345">
		<path d="M184 4c3.5 3.4 4 7.7 4 12.4v43c0 7.6-2.9 10.2-10.7 10.3-11.2.1-22.3.1-33.5.4-8.5.2-14.6 6-15 14.6-.7 12.3-.8 24.6-1.3 36.9-.2 4.2 2.6 3.9 5.3 4h44c6.2 0 9.7 3.5 9.7 9.8V185c0 6.9-2.4 9.4-9 9.5-14.6 0-29 .2-43.5-.1-5-.1-6.5 1.6-6.5 6.3v118.9c0 4.5.5 9 0 13.4-.5 3.1-2.3 6.1-3.5 9.1H60c-3.6-5-2.9-10.8-2.9-16.5l.1-125c0-4.8-1.7-6.4-6.4-6.2-12 .2-24 0-36 0-6.8 0-8.6-1.5-8.6-8-.2-17.6-.2-35-.1-52.6 0-5.6 3.1-8.2 9-8.2 12.3 0 24.7-.2 37 0 3.8 0 5.2-1 5.2-5.2-.2-13.3-.5-26.6.2-40 1.4-29.5 13.2-53.1 40.3-67.2 6.3-3.2 13.7-4.4 20.6-6.6 2.2-.7 4.4-1.6 6.6-2.5z"/>
	</symbol>
	<symbol id="twitter" viewBox="0 0 235 195">
		<path d="M73.5 150.8c-21-2.3-35-12.3-42.9-32.1h19c-21.7-8.1-33.6-23-35.3-45.9l19.2 5.4C14.4 60.4 10 40.2 20.7 16A133 133 0 0 0 116 64.4a55.8 55.8 0 0 1 2.2-27.3 46 46 0 0 1 73.5-17.8c2.6 2.4 4.9 3 7.9 2l23.9-8.9c-3.1 9.8-9.7 17.2-17.8 24.1 3.9-.8 7.8-1.5 11.6-2.6l11.3-3.5 1 1.1c-5.9 6-11.5 12.4-17.9 17.9a11 11 0 0 0-4.4 9.6A130.9 130.9 0 0 1 10.1 172.4a16.5 16.5 0 0 1-1.7-1 8.5 8.5 0 0 1-1-1.3c24.2 1.6 46-4.2 66-19.3z"/>
	</symbol>
	<symbol id="pinterest" viewBox="0 0 255 253">
		<path d="M247 117v22a22 22 0 0 0-.9 3.3A120.1 120.1 0 0 1 157.5 244c-6.5 1.7-13 2.7-19.5 4h-22l-25-5.2c13.3-18.2 17.3-38.8 22.8-59.8a32 32 0 0 0 22.4 13 49.4 49.4 0 0 0 26-3.6c22.6-9.7 34.2-28.1 39.4-51.3 7.6-34.2-5.9-64.7-35.4-79.9a85 85 0 0 0-63.2-5.1 69.4 69.4 0 0 0-51 81.7 48 48 0 0 0 20.5 32.5c4.5 2.9 5.4 2.4 6.7-2.6a73.8 73.8 0 0 0 2.4-9.7 9.8 9.8 0 0 0-1.2-6 50.4 50.4 0 0 1 9-65c23.5-21.5 65.2-16.6 80.5 9.5 11.5 19.6 7.6 53.7-8.1 70.3a31.7 31.7 0 0 1-17 9.8c-17.2 3.4-27.7-9.3-23-23.6 1.8-5.6 3.5-11.2 4.9-16.8 1.6-6.4 3.4-12.9 4.1-19.5.9-8.3-2.8-14.4-8.9-16.8a17 17 0 0 0-19.5 5c-9.6 11.1-9.6 24-6 37.3a17.4 17.4 0 0 1 .3 7.7c-1.8 8.8-4 17.5-6.1 26.2-5 20.4-10.9 40.6-7.7 62 0 .2-.3.5-.6 1a118.5 118.5 0 0 1-70.1-76.9C9.7 154.7 8.6 146.8 7 139v-22a22 22 0 0 0 .9-3.3A120 120 0 0 1 96.5 12c6.5-1.6 13-2.7 19.5-4h22a21.8 21.8 0 0 0 3.3.9A120.1 120.1 0 0 1 243 97.5c1.7 6.4 2.7 13 4 19.5z"/>
	</symbol>
	<symbol id="instagram" viewBox="0 0 321.9 331.8">
		<path d="M289.7 0H32.2C14.5 0 0 15 0 33.2v265.4a32.8 32.8 0 0 0 32.2 33.2h257.5c17.8 0 32.2-15 32.2-33.2V33.2A32.8 32.8 0 0 0 289.7 0zM161 99.5c35.4 0 64.4 29.9 64.4 66.4s-29 66.4-64.4 66.4-64.4-29.9-64.4-66.4 29-66.4 64.4-66.4zM40.2 298.6c-4.8 0-8-3.3-8-8.3v-141H66c-1.6 5-1.6 11.6-1.6 16.6 0 54.8 43.4 99.6 96.6 99.6s96.5-44.8 96.5-99.6c0-5 0-11.6-1.6-16.6h33.8v141c0 5-3.2 8.3-8 8.3zm249.5-224c0 5-3.2 8.3-8 8.3h-32.2c-4.8 0-8-3.3-8-8.3V41.5c0-5 3.2-8.3 8-8.3h32.2c4.8 0 8 3.3 8 8.3z"/>
	</symbol>
	<symbol id="row-down" viewBox="0 0 305 183">
		<path d="M23 6.5c2.6 3 5 6.1 7.7 9L148.3 138l3.6 4.1L280.7 7 299 23.5v1c-10.4 10.7-21 21.3-31.3 32.1L156.1 173.1l-3.4 4.1L5.5 24.7 21 6.5z"/>
	</symbol>
	<symbol id="airplane" viewBox="0 0 400 377">
		<path d="M395.6 38.5a87.5 87.5 0 0 1-9.3 33.5 57.8 57.8 0 0 1-13.5 18.7c-5.3 4.8-9.6 10.8-14.7 16-3.5 3.7-7.5 7-11.4 10.4l-41.1 35.7c-1.1 1-2.7 1.4-3.7 2.4-.7.6-1.5 1.9-1.3 2.7 1.6 7.2 3.6 14.3 5 21.5q10.4 50.5 20.5 101l4.6 23c.3 1.7 1.2 3.2 1.6 4.8a55.8 55.8 0 0 1 1.4 8.4c.1 3.4-3 4.7-5 6.5-10.7 9.7-21.4 19.4-32.6 28.6-3.7 3-8.6 4.7-13.2 6.3-3.4 1.2-6.7-1.1-9-4.7-8-12.3-13-26-19.2-39.1l-34-73.1a34.7 34.7 0 0 0-5-7c-1.1-1.3-2.4-1.2-3.8 0q-22.7 19.9-45.5 39.5c-2.7 2.3-5.6 4.2-8.2 6.4a3.5 3.5 0 0 0-1 2.6c1.1 14.3 2 28.7 3.8 43 .6 5.3-.6 10.4-.1 15.5a3 3 0 0 1-1.1 2.1c-8.9 7-16.3 16-27 20.8-2.2 1-4.1 2.5-7 2.8-5 .5-7.2-2.5-8.9-5.5-13.4-23.6-23-49-34.7-73.3-.3-.7-.2-1.6-.6-2.2a9.4 9.4 0 0 0-2.2-2.3c-.7-.5-1.8-.8-2.6-1.3-21-13.5-42.2-26.8-63-40.5-5.2-3.4-9-8.8-9.3-15.4-.1-1.5 2-3.4 3.3-4.8a66 66 0 0 1 5.4-5.2l17.3-15 3-2.6c4.8-5 7.2-3.6 12.4-1.5a98.4 98.4 0 0 0 14.3 4.8c9.8 2.3 19.7 4 29.5 6.3 3.3.8 5.4 1.2 8.1-1.8 4.2-4.7 9.3-8.4 14-12.5 12.4-10.8 24.7-21.6 37.2-32.3 1.5-1.3 1.6-2.6.5-3.8a32.8 32.8 0 0 0-6-5.8c-14.6-9.6-29.3-19-43.9-28.4L49.1 91c-1.8-1.2-3.8-2.2-5.5-3.4a62 62 0 0 1-5.2-4.3c-3.6-3.4-3.7-7.3-1-11.3C47 58.3 59.9 48 72.4 37.3l7.4-6.6c2.1-1.9 4-2 6.6-.8a97.2 97.2 0 0 0 10 4.5l134.7 47a30.8 30.8 0 0 1 4.8 2.6c1.3.7 2.4 1 3.6-.3 1.8-2 3.7-4 5.7-5.8l52-45.3c1.7-1.4 3.8-2.3 5.7-3.6a45 45 0 0 0 4.5-3.7c5.8-5.4 13-8.7 20.2-11.5 12.8-5 26-7.8 39.8-6.8 8.3.7 14.8 4.3 20.7 10.2 6.2 6 7.2 13.3 7.6 21.3z"/>
	</symbol>
	<symbol id="clock" viewBox="0 0 385 385">
		<path d="M375.8 173.7l1.5 18.9a100.4 100.4 0 0 1-2.6 31.2c-1.7 7-2.4 14.3-4.5 21.2a180.8 180.8 0 0 1-41.8 73 187.1 187.1 0 0 1-76 50 149.3 149.3 0 0 1-32.6 7.5 17.2 17.2 0 0 0-2.4.6 40.8 40.8 0 0 1-6.2 1.6c-4 .4-8.2 1-12.2.6a107.7 107.7 0 0 0-14 0c-6.7.2-13.5-1.3-20.3-2.3-26-4-50.1-12.6-72.2-27A184.5 184.5 0 0 1 12 239.8c-2.4-9-3.1-18.7-5-28a46.8 46.8 0 0 1-.4-18.8 1.6 1.6 0 0 0 0-.7c-2.1-6.3.3-12.4.6-18.5A158.9 158.9 0 0 1 22.5 114q27.8-58.6 85.3-88.7A170.3 170.3 0 0 1 170.4 7c5.5-.5 11-1.2 16.4-1.5 3 0 6 .8 9 1 5.5.2 11 0 16.6.4A172.8 172.8 0 0 1 292 35q55 35.8 76.5 98a154 154 0 0 1 7.5 34.5 61.6 61.6 0 0 1 0 6.2zm-34.3 20.5c0-8 .4-13.7-.1-19.4-.4-4.3-2-8.4-3-12.7a149.3 149.3 0 0 0-40-75.2C278 66 253.3 52.5 224.8 46c-10.8-2.5-21.6-5-32.8-4-8.7.8-17.4.4-26.2 2.1a156.7 156.7 0 0 0-60.4 25.2 142.2 142.2 0 0 0-45.7 51A141.2 141.2 0 0 0 41.6 186v.3a132.3 132.3 0 0 0 8 54.4q28.2 77.3 108.2 97.7c8.9 2.2 17.8 4.5 27.2 3.7 7.2-.5 14.5.3 21.7-.4a144.8 144.8 0 0 0 42.8-11.3q68.4-29.9 87.5-102.2c3-11.9 6.2-23.8 4.5-34z"/>
		<path d="M169 152.8V109c0-5.7-.4-11.4-.6-17.2 0-3.2.8-4.3 4-4.3s6.5.5 9.7.5l12-.3c4.8 0 9.7 0 14.5.4.7 0 1.8 1.6 2 2.5a70.6 70.6 0 0 1 .5 9v96.2a5.4 5.4 0 0 1-.1 2.2c-1.6 3.1.3 4.4 2.6 6l33.5 24c4.2 3 8.8 5.4 13 8.3a30.8 30.8 0 0 1 5.9 5 4.3 4.3 0 0 1 .4 3.8 87.2 87.2 0 0 1-5.2 8.6c-3.7 5.7-7.6 11.3-11.2 17-2.4 4-5.3 5.3-9.3 2.7-11.3-7.2-22.5-14.5-33.5-22.1-10.2-7-20-14.6-30-21.7a19.3 19.3 0 0 1-8.6-17c.2-17.7.2-35.4.2-53v-6.8z"/>
	</symbol>
	<symbol id="wheel" viewBox="0 0 396 396">
		<path d="M192.6 11.3l6.7 1.6c.6.2 1.4.4 1.9.2 4.3-2.4 9-1 13.4-1.2a24.3 24.3 0 0 1 7.2.6c14.3 4.2 29.3 5.6 43.3 11A192.5 192.5 0 0 1 330 64.8a183.4 183.4 0 0 1 50.2 84.4c2 7.2 2.9 14.7 4.3 22 .2 1 .7 2 1 3a28.5 28.5 0 0 1 1.2 5.3c.3 4.3.4 8.6.4 13a22 22 0 0 1-.9 4c-.2.8-.6 2-.3 2.6 2.4 4.9 1.7 10 .9 15-2.3 13.4-4.5 27-8.6 40.2a176.9 176.9 0 0 1-17 37.9 186.9 186.9 0 0 1-24.8 33.1c-25 26.5-55 44.6-90.5 53.5-5.9 1.5-12 2.2-17.9 3.3-1.2.2-2.3.7-3.5 1a21.9 21.9 0 0 1-4.6 1.2c-4.9.3-9.8.8-14.6.3a41.3 41.3 0 0 0-9.2 0c-5.6.5-11.6.7-16.9-.7-13.5-3.7-27.6-5-40.7-10a200.3 200.3 0 0 1-37.5-18.6q-56-36.3-77.6-99.5a157.5 157.5 0 0 1-6.8-30.8c-.3-2.2-1.8-4.3-2-6.6-.4-5-1-10-.4-15a47.3 47.3 0 0 0 0-10c-.6-5.5-.7-11.3.7-16.5 3.7-13.9 5.1-28.3 10.4-41.9a202 202 0 0 1 19.6-38.4A187.6 187.6 0 0 1 140.5 22a159 159 0 0 1 33.3-7.6c2.8-.4 5.6-1.7 8.5-2.1 3.4-.5 6.8-.4 10.2-.6zm9 247.6c4.8-.2 9.3-.5 14-2a63 63 0 0 0 40.3-35.5 52.3 52.3 0 0 0 3-38 62.4 62.4 0 0 0-67.3-45.5 11.1 11.1 0 0 0-2.6.6c-2.4 1-4.8 2-7.2 2.8-11.4 4.2-21.6 10.4-28.7 20.4s-12.6 20.8-13 33.6c-.1 6.5.1 12.7 2.4 18.9a61.8 61.8 0 0 0 59.2 44.7zm2.6 89.5c17 .8 36.5-5.2 56-11.6 4.1-1.4 7.9-4.1 11.8-6.2l1.1-.6c4.4-2.2 4.6-3.3 1-6.9L242 290.7c-.6-.5-1.2-1.1-1.7-1.8-1.9-2.1-3.3-2.1-5.7-.8a33.7 33.7 0 0 1-7 2.8c-2.5.7-5.2.6-7.7 1.2a92.2 92.2 0 0 1-37 .4l-19.1-3.3a5.5 5.5 0 0 0-5.1 2l-30.2 30.2-3 3c-.7.7-2 1.8-1.8 2.3a5.4 5.4 0 0 0 2.3 2.6c2.8 1.7 5.7 3.2 8.6 4.7a79.1 79.1 0 0 0 7.4 3.3c2 .7 4.3 1 6.3 1.7 16.8 6.2 34.1 9.4 56 9.4zM50.4 204c1 20.4 5.5 45.7 19.4 68.5l.2.4c1.2 2 2.6 2.2 4.2.6l32.5-32.6a9.4 9.4 0 0 0 2.8-8.9l-2.8-14.1a92.1 92.1 0 0 1-.7-35.7c1.3-7.2 2.3-14.3 3.5-21.4a4.1 4.1 0 0 0-1.5-4l-24.2-24.1-9.4-9.3c-2-2-3.5-1.8-4.7.3-1.9 3.4-4 6.7-5.7 10.2a38.8 38.8 0 0 0-2.5 6c-.6 2-.9 4-1.6 6a157.2 157.2 0 0 0-9.5 58.1zm184.2-96.6c4 .1 6.5-.8 8.7-3l32-32c2.1-2.2 1.9-3.5-.8-5L264 61.1a19.6 19.6 0 0 0-3.9-1.7c-3-.9-6.1-1.5-9.1-2.5a149.2 149.2 0 0 0-41.9-8.5 129 129 0 0 0-40 3.1c-14.7 3.9-29.9 6.6-42.6 16l-.2.1c-2.5 1.4-2.7 2.7-.7 4.6 10.2 10.2 20.6 20.1 30.4 30.7 3.9 4.2 7.8 5 12.8 3.9l1.7-.4c17.4-4.4 35-5.4 52.7-1.6l11.4 2.5zm115.9 91.1v-7.2a154 154 0 0 0-9.3-45.4c-1.7-4.8-2.3-10-5.5-14.3a58.2 58.2 0 0 1-4-7c-1.6-3-3-3.2-5.5-.8l-33.6 33.6a3.3 3.3 0 0 0-1 2c.1 3 .3 5.8.7 8.7 1.4 9.6 3.6 19 4 28.6.6 11-1.2 22-4.2 32.6-1.2 4.3-1 8.4 2.4 11.8l32 32c2 2 3.5 1.8 5-.7l6.1-10.5a19.5 19.5 0 0 0 1.7-3.9c1-3 1.6-6.3 2.7-9.3a145.7 145.7 0 0 0 8.5-50.2z"/>
	</symbol>
	<symbol id="rss" viewBox="0 0 241 246">
		<path d="M233 229v8h-48c-1-2.1-2.5-4.2-2.8-6.4-.7-5.3-.6-10.6-1.2-16-5-44.6-24.7-81.6-58.7-111A166.2 166.2 0 0 0 18.1 62.8c-3.4-.1-6.7-1.1-10.1-1.7V12h15c6.4.7 12.9 1.3 19.2 2.2 51.4 7.8 95.1 30.3 130.6 68.1a215.3 215.3 0 0 1 57.3 119c1.3 9.2 2 18.5 2.9 27.7z"/>
		<path d="M8 133V88c2-.7 4.1-2.1 6.2-2.1a130.7 130.7 0 0 1 61 14.3c53.3 27.6 81.5 71.5 83.9 131.7 0 1.6-1.4 3.4-2.1 5.1h-45c-.7-2-1.9-4-2-6a98.7 98.7 0 0 0-96-96.2c-2 0-4-1.2-6-1.8z"/>
		<path d="M8 199c2.7-5.6 4.5-12 8.1-16.8a32 32 0 0 1 37.9-9.4 33 33 0 0 1 20.4 33.3A33.1 33.1 0 0 1 48.7 236a20.5 20.5 0 0 0-2.7 1h-9c-5.1-2.2-10.6-3.8-15.3-6.8-8-5-11.6-13.2-13.7-22.2z"/>
	</symbol>
</svg>